HIERARCHY
ROOT hip
{
  OFFSET 0 0 0
  CHANNELS 6 Xposition Yposition Zposition Zrotation Yrotation Xrotation
  JOINT abdomen
  {
    OFFSET 0 20.6881 -0.73152
    CHANNELS 3 Zrotation Xrotation Yrotation
    JOINT chest
    {
      OFFSET 0 11.7043 -0.48768
      CHANNELS 3 Zrotation Xrotation Yrotation
      JOINT neck
      {
        OFFSET 0 22.1894 -2.19456
        CHANNELS 3 Zrotation Xrotation Yrotation
        JOINT head
        {
          OFFSET -0.24384 7.07133 1.2192
          CHANNELS 3 Zrotation Xrotation Yrotation
          JOINT leftEye
          {
            OFFSET 4.14528 8.04674 8.04672
            CHANNELS 3 Zrotation Xrotation Yrotation
            End Site
            {
              OFFSET 1 0 0
            }
          }
          JOINT rightEye
          {
            OFFSET -3.6576 8.04674 8.04672
            CHANNELS 3 Zrotation Xrotation Yrotation
            End Site
            {
              OFFSET 1 0 0
            }
          }
        }
      }
      JOINT rCollar
      {
        OFFSET -2.68224 19.2634 -4.8768
        CHANNELS 3 Zrotation Xrotation Yrotation
        JOINT rShldr
        {
          OFFSET -8.77824 -1.95073 1.46304
          CHANNELS 3 Zrotation Xrotation Yrotation
          JOINT rForeArm
          {
            OFFSET -28.1742 -1.7115 0.48768
            CHANNELS 3 Zrotation Xrotation Yrotation
            JOINT rHand
            {
              OFFSET -22.5879 0.773209 7.07136
              CHANNELS 3 Zrotation Xrotation Yrotation
              JOINT rThumb1
              {
                OFFSET -1.2192 -0.487915 3.41376
                CHANNELS 3 Zrotation Xrotation Yrotation
                JOINT rThumb2
                {
                  OFFSET -3.37035 -0.52449 3.41376
                  CHANNELS 3 Zrotation Xrotation Yrotation
                  End Site
                  {
                    OFFSET -1.78271 -1.18214 1.43049
                  }
                }
              }
              JOINT rIndex1
              {
                OFFSET -7.75947 0.938293 5.60832
                CHANNELS 3 Zrotation Xrotation Yrotation
                JOINT rIndex2
                {
                  OFFSET -2.54057 -0.884171 1.56538
                  CHANNELS 3 Zrotation Xrotation Yrotation
                  End Site
                  {
                    OFFSET -1.62519 -0.234802 1.16502
                  }
                }
              }
              JOINT rMid1
              {
                OFFSET -8.24714 1.18213 3.41376
                CHANNELS 3 Zrotation Xrotation Yrotation
                JOINT rMid2
                {
                  OFFSET -3.10165 -0.590103 1.0647
                  CHANNELS 3 Zrotation Xrotation Yrotation
                  End Site
                  {
                    OFFSET -2.48547 -0.328903 0.83742
                  }
                }
              }
              JOINT rRing1
              {
                OFFSET -8.82822 0.546677 1.51678
                CHANNELS 3 Zrotation Xrotation Yrotation
                JOINT rRing2
                {
                  OFFSET -2.60934 -0.819778 -0.0198488
                  CHANNELS 3 Zrotation Xrotation Yrotation
                  End Site
                  {
                    OFFSET -2.33842 -0.294052 0.168128
                  }
                }
              }
              JOINT rPinky1
              {
                OFFSET -8.27202 -0.0477905 -0.4584
                CHANNELS 3 Zrotation Xrotation Yrotation
                JOINT rPinky2
                {
                  OFFSET -1.82734 -0.647385 -0.700984
                  CHANNELS 3 Zrotation Xrotation Yrotation
                  End Site
                  {
                    OFFSET -1.69225 -0.51767 -0.607171
                  }
                }
              }
            }
          }
        }
      }
      JOINT lCollar
      {
        OFFSET 2.68224 19.2634 -4.8768
        CHANNELS 3 Zrotation Xrotation Yrotation
        JOINT lShldr
        {
          OFFSET 8.77824 -1.95073 1.46304
          CHANNELS 3 Zrotation Xrotation Yrotation
          JOINT lForeArm
          {
            OFFSET 28.1742 -1.7115 0.48768
            CHANNELS 3 Zrotation Xrotation Yrotation
            JOINT lHand
            {
              OFFSET 22.5879 0.773209 7.07136
              CHANNELS 3 Zrotation Xrotation Yrotation
              JOINT lThumb1
              {
                OFFSET 1.2192 -0.487915 3.41376
                CHANNELS 3 Zrotation Xrotation Yrotation
                JOINT lThumb2
                {
                  OFFSET 3.37035 -0.52449 3.41376
                  CHANNELS 3 Zrotation Xrotation Yrotation
                  End Site
                  {
                    OFFSET 1.78271 -1.18214 1.43049
                  }
                }
              }
              JOINT lIndex1
              {
                OFFSET 7.75947 0.938293 5.60832
                CHANNELS 3 Zrotation Xrotation Yrotation
                JOINT lIndex2
                {
                  OFFSET 2.54057 -0.884171 1.56538
                  CHANNELS 3 Zrotation Xrotation Yrotation
                  End Site
                  {
                    OFFSET 1.62519 -0.234802 1.16502
                  }
                }
              }
              JOINT lMid1
              {
                OFFSET 8.24714 1.18213 3.41376
                CHANNELS 3 Zrotation Xrotation Yrotation
                JOINT lMid2
                {
                  OFFSET 3.10165 -0.590103 1.0647
                  CHANNELS 3 Zrotation Xrotation Yrotation
                  End Site
                  {
                    OFFSET 2.48547 -0.328903 0.83742
                  }
                }
              }
              JOINT lRing1
              {
                OFFSET 8.82822 0.546677 1.51678
                CHANNELS 3 Zrotation Xrotation Yrotation
                JOINT lRing2
                {
                  OFFSET 2.60934 -0.819778 -0.0198488
                  CHANNELS 3 Zrotation Xrotation Yrotation
                  End Site
                  {
                    OFFSET 2.33842 -0.294052 0.168128
                  }
                }
              }
              JOINT lPinky1
              {
                OFFSET 8.27202 -0.0477905 -0.4584
                CHANNELS 3 Zrotation Xrotation Yrotation
                JOINT lPinky2
                {
                  OFFSET 1.82734 -0.647385 -0.700984
                  CHANNELS 3 Zrotation Xrotation Yrotation
                  End Site
                  {
                    OFFSET 1.69225 -0.51767 -0.607171
                  }
                }
              }
            }
          }
        }
      }
    }
  }
  JOINT rButtock
  {
    OFFSET -8.77824 4.35084 1.2192
    CHANNELS 3 Zrotation Xrotation Yrotation
    JOINT rThigh
    {
      OFFSET 0 -1.70687 -2.19456
      CHANNELS 3 Zrotation Xrotation Yrotation
      JOINT rShin
      {
        OFFSET 0 -36.8199 0.73152
        CHANNELS 3 Zrotation Xrotation Yrotation
        JOINT rFoot
        {
          OFFSET 0.73152 -45.1104 -5.12064
          CHANNELS 3 Zrotation Xrotation Yrotation
          End Site
          {
            OFFSET -1.1221 -3.69964 12.103
          }
        }
      }
    }
  }
  JOINT lButtock
  {
    OFFSET 8.77824 4.35084 1.2192
    CHANNELS 3 Zrotation Xrotation Yrotation
    JOINT lThigh
    {
      OFFSET 0 -1.70687 -2.19456
      CHANNELS 3 Zrotation Xrotation Yrotation
      JOINT lShin
      {
        OFFSET 0 -36.8199 0.73152
        CHANNELS 3 Zrotation Xrotation Yrotation
        JOINT lFoot
        {
          OFFSET -0.73152 -45.1104 -5.12064
          CHANNELS 3 Zrotation Xrotation Yrotation
          End Site
          {
            OFFSET 1.1221 -3.69964 12.103
          }
        }
      }
    }
  }
}
MOTION
Frames:	4
Frame Time:	0.03333
0.0011867453682897155 35.43673237641324 0.029512953918934198 -2.970258951187134 7.3737473487854 4.7906084060668945 -2.226278781890869 14.777243614196777 3.735180139541626 2.7348475456237793 -9.753460884094238 1.1454575061798096 -4.977205753326416 15.581974029541016 -3.4357542991638184 8.972909927368164 -26.283702850341797 -4.984695911407471 0.007497479673475027 0.0018310421146452427 -0.005647663958370686 0.018155865371227264 0.009313931688666344 0.03796493262052536 0.030694564804434776 0.019627423956990242 0.03604502230882645 46.602413177490234 35.84400939941406 17.306049346923828 -28.08580207824707 -32.12477111816406 62.78728103637695 -1.5889453887939453 -10.753254890441895 -1.5355584621429443 -0.009017319418489933 -0.028126517310738564 -0.007385274861007929 0.011923886835575104 -0.011482657864689827 0.014958832412958145 0.05284670367836952 -0.018168019130825996 -0.013358195312321186 7.737823486328125 5.496779441833496 0.40396586060523987 0.000303176260786131 0.013388074934482574 0.003911688458174467 2.8803281784057617 0.9981075525283813 0.062285397201776505 -0.01822292059659958 0.009675453417003155 0.031334586441516876 10.277382850646973 0.7550891637802124 0.034605443477630615 -0.014319220557808876 0.02468348853290081 -0.013193785212934017 2.231501340866089 -0.7643169164657593 -0.21620924770832062 -0.0001492429437348619 0.007647635415196419 -0.0038101309910416603 -52.20867156982422 39.0933952331543 -29.652454376220703 27.434249877929688 -30.401193618774414 -58.568580627441406 1.9739623069763184 -13.919849395751953 2.0010132789611816 0.008306131698191166 -0.028420541435480118 -0.0073695736937224865 -0.04662029817700386 0.036740876734256744 -0.0019858870655298233 -0.0031601155642420053 0.01790003292262554 -0.006587876472622156 -7.763372898101807 5.458976745605469 -0.4337650537490845 -0.0042249709367752075 -0.016888873651623726 0.007773077581077814 -2.9028403759002686 0.9429206848144531 -0.08655570447444916 0.02685340866446495 -0.01911136880517006 0.019890030845999718 -10.283727645874023 0.7232744693756104 -0.013883981853723526 -0.016028493642807007 0.00218927557580173 0.016482898965477943 -2.1858553886413574 -0.7270507216453552 0.20420178771018982 0.009933635592460632 -0.03231996297836304 -0.020002072677016258 -27.82130241394043 -38.57217025756836 -23.387405395507812 -1.7031052112579346 64.8708724975586 2.7997822761535645 -4.729355812072754 -10.582564353942871 -10.326613426208496 0.009320790879428387 -0.026393219828605652 0.010559571906924248 33.99425506591797 -38.133811950683594 26.923168182373047 1.9085592031478882 66.23938751220703 -3.0480055809020996 4.90150785446167 -10.419729232788086 13.564244270324707
-0.01603941860530557 35.418963639287455 0.05078411066548442 -3.0795979499816895 7.363308906555176 4.66414213180542 -2.178161859512329 14.76412582397461 3.7566819190979004 2.7391836643218994 -9.741304397583008 1.1415513753890991 -4.922397136688232 15.61833667755127 -3.4085183143615723 8.953780174255371 -26.24275016784668 -5.0486884117126465 0.008719628676772118 0.01201917976140976 -0.008160065859556198 0.024315938353538513 0.004833011422306299 0.058653317391872406 0.05488594248890877 0.03592752665281296 0.056074414402246475 46.664588928222656 35.65630340576172 17.067590713500977 -28.104290008544922 -32.224815368652344 62.84033203125 -1.5975593328475952 -10.70449447631836 -1.534248948097229 -0.034896135330200195 -0.0725327730178833 -0.06036009266972542 0.0181292574852705 -0.027850830927491188 0.016188567504286766 0.05954749882221222 -0.00824049673974514 -0.007122749462723732 7.76667594909668 5.49616813659668 0.37882882356643677 -0.010958670638501644 0.02860935591161251 0.008967908099293709 2.877272844314575 1.0196590423583984 0.020256418734788895 -0.0368993915617466 0.05747615918517113 0.050877463072538376 10.328919410705566 0.7524959444999695 0.07434302568435669 -0.026659265160560608 0.03375331312417984 -0.017775187268853188 2.247591972351074 -0.8098678588867188 -0.2049354612827301 0.0028583707753568888 0.0068826815113425255 -0.0003391654754523188 -52.07769012451172 39.082054138183594 -29.640697479248047 27.4495792388916 -30.531951904296875 -58.494606018066406 2.0061309337615967 -13.973485946655273 2.0304040908813477 -0.003851979738101363 -0.06780332326889038 -0.01538180559873581 -0.11059175431728363 0.05982304736971855 -0.020860202610492706 -0.014378954656422138 0.030480504035949707 0.005830682348459959 -7.80679988861084 5.439794063568115 -0.45484670996665955 0.010394388809800148 -0.01707475259900093 0.01863076724112034 -2.9148433208465576 0.9410820007324219 -0.06952086836099625 0.0755390077829361 -0.003398660570383072 0.0621555857360363 -10.272686004638672 0.7232989072799683 0.005233945790678263 -0.03318434953689575 -0.03740352764725685 0.029526563361287117 -2.148624897003174 -0.7554123997688293 0.1591145247220993 0.0025546483229845762 -0.06676818430423737 -0.047854043543338776 -28.038206100463867 -38.6748161315918 -23.543827056884766 -1.7265071868896484 64.98365020751953 2.82608962059021 -4.685164928436279 -10.57539176940918 -10.248520851135254 0.002408655360341072 -0.030918214470148087 0.06038479879498482 33.990238189697266 -38.305362701416016 26.834957122802734 1.9859014749526978 66.28849029541016 -3.1329121589660645 4.8549065589904785 -10.512619018554688 13.46158218383789
-0.07571510154882431 35.473191926202766 -0.3809745049683828 10.308536529541016 15.601706504821777 6.17720365524292 -16.909934997558594 11.295098304748535 -3.4701571464538574 5.85666561126709 -8.77696704864502 -1.1113911867141724 -5.814242839813232 16.003555297851562 -7.820236682891846 8.826498031616211 -23.82439613342285 -14.064403533935547 0.27929094433784485 -0.11985384672880173 0.025201305747032166 0.10200955718755722 0.10003707557916641 0.058077748864889145 0.19814546406269073 0.00015892423107288778 -0.1582183837890625 62.05356216430664 32.25679016113281 1.9739776849746704 -17.774959564208984 -10.139151573181152 33.72951889038086 0.16821129620075226 10.912962913513184 1.675746202468872 -0.042884327471256256 -0.23667460680007935 -0.02812139131128788 0.11421943455934525 -0.17524096369743347 0.22828735411167145 0.19251421093940735 0.11806820333003998 0.18935871124267578 7.548572063446045 5.721654891967773 0.6660212278366089 -0.10027345269918442 0.21055851876735687 0.11128085851669312 2.742732048034668 1.1270889043807983 -0.15999622642993927 0.024472113698720932 0.27466726303100586 0.11777171492576599 10.28659439086914 0.9072796702384949 0.3209051489830017 -0.20598873496055603 0.2016507238149643 0.01500681322067976 2.218871593475342 -0.5661998987197876 -0.05491771921515465 0.0760844498872757 0.019953381270170212 0.3878011703491211 -70.00749969482422 36.52933120727539 -11.88267707824707 15.695659637451172 -8.510807991027832 -28.704072952270508 0.03538331389427185 8.865886688232422 -1.148815393447876 -0.020824799314141273 -0.2654934525489807 -0.07717856019735336 -0.4730420708656311 0.1497347503900528 0.07060734927654266 -0.15953393280506134 0.07028397917747498 0.045066773891448975 -7.7603349685668945 5.598989963531494 -0.3715032637119293 0.10501286387443542 -0.1715121865272522 0.00497440854087472 -2.9593567848205566 0.7395851612091064 -0.2112472951412201 0.12429185211658478 -0.23218871653079987 0.04638248682022095 -10.103879928588867 0.7457189559936523 0.010903154499828815 -0.08634340018033981 0.06652020663022995 0.19698365032672882 -2.1825790405273438 -0.47858524322509766 -0.010292401537299156 -0.06907949596643448 -0.08075232803821564 0.04895344749093056 -58.04573059082031 -63.00069808959961 -48.36268615722656 -3.385634183883667 75.24234008789062 4.261992454528809 2.0567071437835693 -3.9854445457458496 10.362897872924805 0.2734547257423401 -0.05147724598646164 0.36498764157295227 6.678084373474121 10.763934135437012 3.912714958190918 -0.17228330671787262 33.251930236816406 -2.627399444580078 14.118196487426758 -21.073490142822266 35.590240478515625
0.16419251828352324 32.9056725907762 -0.4135558546708791 10.931780815124512 15.779897689819336 8.053115844726562 -17.960886001586914 11.201462745666504 -3.30976939201355 6.181110382080078 -9.65717601776123 -1.1046520471572876 -6.0412917137146 16.024864196777344 -7.491270065307617 8.40723705291748 -26.442180633544922 -12.937085151672363 0.07287368923425674 0.4941476285457611 0.06476593017578125 0.03058701939880848 -0.21851100027561188 0.36882439255714417 0.19891948997974396 -0.046221569180488586 -0.2184969186782837 62.73406219482422 30.272991180419922 -0.18291990458965302 -18.12453269958496 -10.22665786743164 34.194618225097656 -0.20788903534412384 10.946614265441895 1.3675395250320435 -0.006464359816163778 -0.068797267973423 -0.1779908537864685 -0.09152036160230637 -0.21895158290863037 -0.0588950514793396 0.13069583475589752 -0.03253565728664398 0.23332111537456512 7.970016002655029 5.427335262298584 0.5094105005264282 -0.03734560310840607 0.381904274225235 0.313757061958313 2.7460711002349854 1.1601271629333496 0.06526332348585129 -0.21281762421131134 0.2212781459093094 -0.03665817156434059 10.335417747497559 0.5471318364143372 0.2872392535209656 -0.06901826709508896 0.2390824407339096 -0.2037440836429596 2.231776714324951 -0.7224723100662231 0.009884784929454327 0.07237264513969421 0.10209989547729492 0.0809999629855156 -67.69557189941406 38.768951416015625 -13.491697311401367 14.597638130187988 -7.251224517822266 -26.334569931030273 -0.08122212439775467 11.627889633178711 -1.7498093843460083 -0.1015041321516037 -0.18541039526462555 0.069395050406456 -0.38532137870788574 0.09201227128505707 0.222978413105011 0.17585235834121704 0.0966288223862648 0.1761772632598877 -7.750146865844727 5.550428867340088 -0.519877552986145 -0.0031248009763658047 0.09369480609893799 0.05137490853667259 -3.1051502227783203 0.8229984045028687 0.2173241227865219 -0.05852709338068962 -0.014251390472054482 0.1711277812719345 -10.2579984664917 0.7777702212333679 -0.14399711787700653 -0.1311476230621338 -0.24873942136764526 0.1803102344274521 -2.2791895866394043 -0.8107985854148865 0.3475247323513031 0.10957862436771393 0.21499040722846985 0.054814573377370834 -57.23983383178711 -61.31226348876953 -49.62217712402344 -2.5879762172698975 73.75613403320312 3.6729211807250977 0.37100082635879517 -3.629758358001709 9.770171165466309 -0.07692103087902069 -0.03452325239777565 0.3548714816570282 3.942488670349121 12.60302448272705 4.082524299621582 -0.0986572802066803 30.69675064086914 -2.700495719909668 13.872323036193848 -20.0264949798584 36.57429885864258
